# xmcd
#
# Track frame offsets:
#	150
#	19205
#	41146
#	58345
#	79072
#	97581
#	116222
#	137464
#	155162
#	171828
#	190862
#	207487
#
# Disc length: 2998 seconds
#
# Revision: 0
# Processed by: cddbd v1.5.2PL0 Copyright (c) Steve Scherf et al.
# Submitted via: audiograbber 1.83.01
#
DISCID=a70bb40c
DTITLE=David Avery - Feel Good For Awhile
DYEAR=2009
DGENRE=
TTITLE0=Baggage
TTITLE1=In Between Buses
TTITLE2=All Of Us
TTITLE3=Feel Good For Awhile
TTITLE4=On Some Other Earth
TTITLE5=Work
TTITLE6=t You Love Me
TTITLE7=re Both Sure
TTITLE8=Up
TTITLE9=Will There Be A Place For Me
TTITLE10=Borrow Til Morning
TTITLE11=Say It Again
EXTD=
EXTT0=
EXTT1=
EXTT2=
EXTT3=
EXTT4=
EXTT5=
EXTT6=
EXTT7=
EXTT8=
EXTT9=
EXTT10=
EXTT11=
PLAYORDER=
